<svg width="231" height="231" viewBox="0 0 231 231" fill="none" xmlns="http://www.w3.org/2000/svg">
<path fill-rule="evenodd" clip-rule="evenodd" d="M115.311 20.2461L20.989 83.4667L60.2479 108.96L107.154 77.348L88.5483 65.1262L114.034 48.0512L169.337 84.7503L78.6088 145.66L98.2329 158.657L211.132 83.4763L210.877 83.2215L115.311 20.2461ZM209.372 20.2724L170.126 46.2676L189.749 59.5194L209.372 46.2676V20.2724ZM20.3418 210.335L59.5888 184.341L39.9659 171.088L20.3418 184.341V210.335Z" fill="#33348E"/>
<path fill-rule="evenodd" clip-rule="evenodd" d="M115.269 210.281L209.59 147.059L170.332 121.567L123.427 153.178L142.031 165.4L116.546 182.476L61.2435 145.776L151.97 84.8676L132.347 71.8694L19.4473 147.05L19.7021 147.307L115.269 210.281Z" fill="#33348E"/>
</svg>
