<svg width="101" height="99" viewBox="0 0 101 99" fill="none" xmlns="http://www.w3.org/2000/svg">
<path d="M100.899 74.666C100.899 63.4536 92.8179 54.0719 81.9808 51.6522C80.2063 51.2566 78.3618 51.0402 76.4628 51.0402C75.9323 51.0402 75.4082 51.0623 74.8863 51.0944C63.044 51.8244 53.4988 60.7046 52.1856 71.9986C52.0839 72.8743 52.0264 73.7636 52.0264 74.666C52.0264 76.3655 52.2163 78.0216 52.5686 79.6198C54.9241 90.2887 64.7247 98.2918 76.4628 98.2918C89.9589 98.2918 100.899 87.7143 100.899 74.666ZM76.4628 90.2895C67.538 90.2895 60.3031 83.2947 60.3031 74.666C60.3031 66.0373 67.538 59.0424 76.4628 59.0424C85.3876 59.0424 92.6225 66.0373 92.6225 74.666C92.6225 83.2947 85.3876 90.2895 76.4628 90.2895Z" fill="white"/>
<path d="M79.6157 63.9963H74.0978V72.3797H65.4268V77.7145H79.6157V72.3797V63.9963Z" fill="white"/>
<path d="M18.13 0.740173C16.6086 0.740173 15.3711 1.93677 15.3711 3.40754V9.50452V15.9826C15.3711 17.4535 16.6086 18.65 18.13 18.65H20.4949C22.0163 18.65 23.2538 17.4534 23.2538 15.9826V9.50452V3.40754C23.2538 1.93677 22.0163 0.740173 20.4947 0.740173H18.13Z" fill="white"/>
<path d="M61.4855 0.740173C59.9641 0.740173 58.7266 1.93677 58.7266 3.40754V9.50452V15.9826C58.7266 17.4535 59.9642 18.65 61.4855 18.65H63.8503C65.3717 18.65 66.6092 17.4534 66.6092 15.9826V9.50452V3.40754C66.6092 1.93677 65.3716 0.740173 63.8502 0.740173H61.4855Z" fill="white"/>
<path d="M6.30621 79.6197H45.3259C44.9413 77.7707 44.737 75.8602 44.737 73.9039C44.737 73.2629 44.7662 72.6289 44.8087 71.9986H11.8242C9.21185 71.9986 7.09445 69.9514 7.09445 67.4258V30.8439H74.8863V44.9837C75.4081 44.9577 75.9339 44.9433 76.4628 44.9433C78.3484 44.9433 80.1905 45.1201 81.9808 45.444V15.6015C81.9808 12.2344 79.1572 9.50452 75.6745 9.50452H70.5508V15.9826C70.5508 19.5547 67.5452 22.4607 63.8504 22.4607H61.4855C57.7908 22.4607 54.7851 19.5547 54.7851 15.9826V9.50452H27.1955V15.9826C27.1955 19.5547 24.1898 22.4607 20.4951 22.4607H18.1302C14.4355 22.4607 11.4298 19.5547 11.4298 15.9826V9.50452H6.30621C2.82353 9.50452 0 12.2345 0 15.6015V73.5228C0 76.8899 2.82353 79.6197 6.30621 79.6197Z" fill="white"/>
<path d="M22.2203 48.3256C25.6762 48.3256 28.4777 45.617 28.4777 42.2758C28.4777 38.9346 25.6762 36.226 22.2203 36.226C18.7644 36.226 15.9629 38.9346 15.9629 42.2758C15.9629 45.617 18.7644 48.3256 22.2203 48.3256Z" fill="white"/>
<path d="M40.9908 48.3256C44.4467 48.3256 47.2482 45.617 47.2482 42.2758C47.2482 38.9346 44.4467 36.226 40.9908 36.226C37.5349 36.226 34.7334 38.9346 34.7334 42.2758C34.7334 45.617 37.5349 48.3256 40.9908 48.3256Z" fill="white"/>
<path d="M59.7613 48.3256C63.2172 48.3256 66.0187 45.617 66.0187 42.2758C66.0187 38.9346 63.2172 36.226 59.7613 36.226C56.3054 36.226 53.5039 38.9346 53.5039 42.2758C53.5039 45.617 56.3054 48.3256 59.7613 48.3256Z" fill="white"/>
<path d="M40.9906 66.6164C44.4464 66.6164 47.2479 63.9078 47.2479 60.5667C47.2479 57.2256 44.4464 54.5171 40.9906 54.5171C37.5349 54.5171 34.7334 57.2256 34.7334 60.5667C34.7334 63.9078 37.5349 66.6164 40.9906 66.6164Z" fill="white"/>
<path d="M22.2201 66.6164C25.6759 66.6164 28.4774 63.9078 28.4774 60.5667C28.4774 57.2256 25.6759 54.5171 22.2201 54.5171C18.7644 54.5171 15.9629 57.2256 15.9629 60.5667C15.9629 63.9078 18.7644 66.6164 22.2201 66.6164Z" fill="white"/>
</svg>
