<svg width="231" height="231" viewBox="0 0 231 231" fill="none" xmlns="http://www.w3.org/2000/svg">
<path fill-rule="evenodd" clip-rule="evenodd" d="M0 0H229.915V184.999H134.823V108.357H113.98V184.999H102.907V132.672H92.487V184.999H0V0ZM7.81399 64.4859C19.9699 60.0832 32.1273 55.678 44.2885 51.2716C93.109 -3.95108 156.531 16.956 179.112 43.3432C126.57 16.035 87.7064 29.9548 68.3878 48.6292C216.025 36.2032 252.933 109.146 173.249 135.842C243.807 89.8566 154.142 52.3283 60.573 56.028C38.0956 89.6782 45.4739 114.521 66.4331 136.899C43.834 122.86 28.8461 102.34 41.0321 58.671C29.9586 60.6109 18.8852 62.5484 7.81399 64.4859Z" fill="#CC2229"/>
<path fill-rule="evenodd" clip-rule="evenodd" d="M36.0975 204.85H44.8204L44.9955 207.608C47.521 204.499 51.0336 203.402 55.5318 204.31C55.1855 206.898 54.8369 209.49 54.4884 212.08C50.0263 210.602 47.2318 212.447 45.5423 216.263L45.5761 216.773L45.5784 230.009H36.0975V204.85ZM3.03418 196.384V229.773C8.18591 229.789 13.3406 229.809 18.4954 229.828C34.6898 230.17 34.6665 216.262 25.4447 212.534C34.07 208.856 32.017 196.412 18.6216 196.405C13.4233 196.462 8.22723 196.33 3.03418 196.384ZM13.1055 203.101H17.2244C22.1177 203.478 21.8855 209.28 17.2244 209.535H13.1055V203.101ZM13.1055 216.224H17.5549C22.8411 216.634 22.5909 222.945 17.5549 223.223H13.1055V216.224ZM106.512 195.478H115.994V229.882H107.175V226.582C97.3361 234.801 87.0191 228.224 86.6893 216.797C87.2159 206.303 95.9884 200.465 106.512 207.1V195.478ZM101.438 211.101C104.128 211.101 106.321 213.901 106.321 217.337C106.321 220.771 104.128 223.57 101.438 223.57C98.7468 223.57 96.5541 220.77 96.5541 217.337C96.5541 213.9 98.7468 211.101 101.438 211.101ZM59.432 206.181C59.4756 208.191 59.5229 210.201 59.5718 212.214C65.8187 209.373 73.3848 208.905 73.4059 213.945C63.2233 213.273 56.4265 215.401 56.5301 222.815C56.618 229.185 65.9021 232.816 73.8198 227.408C73.8633 228.227 73.9099 229.047 73.9565 229.867C76.8231 229.884 79.6927 229.903 82.5615 229.921C82.8357 222.156 82.8454 215.975 82.0634 211.624C79.4147 204.369 72.4601 202.176 59.432 206.181ZM73.4051 218.917C73.2398 221.545 72.4008 223.259 70.6985 223.891C67.5916 225.04 63.94 222.788 66.3108 220.342C67.3572 219.259 69.7355 218.604 73.4051 218.917Z" fill="black"/>
<path fill-rule="evenodd" clip-rule="evenodd" d="M129.557 220.107C135.434 220.158 141.315 220.208 147.197 220.26C148.809 211.101 142.74 204.252 134.394 204.097C116.931 202.996 114.166 229.624 134.298 230.574C137.963 230.564 141.627 230.139 145.3 229.112C145.204 226.776 145.108 224.441 145.015 222.108C134.88 227.115 130.225 223.221 129.557 220.107ZM129.368 214.488L138.756 214.642C138.531 208.339 129.789 208.931 129.368 214.488ZM169.77 212.411C170.116 210.103 170.465 207.793 170.814 205.483C158.333 201.969 150.413 206.276 150.137 211.948C150.041 221.109 163.987 218.642 162.656 223.108C160.053 225.519 155.692 223.953 151.276 222.03C150.995 224.388 150.71 226.749 150.424 229.111C162.284 231.756 170.5 230.719 172.235 223.108C173.366 212.906 159.408 215.257 159.526 211.486C159.624 209.565 165.315 209.255 169.77 212.411ZM196.705 212.486C196.893 210.178 197.081 207.87 197.273 205.56C186.858 201.892 174.594 205.918 174.607 217.567C174.997 228.59 186.324 232.943 197.652 229.342C197.523 226.904 197.397 224.466 197.273 222.03C190.669 226.282 184.696 222.794 184.469 217.335C184.283 212.794 188.17 208.406 196.705 212.486ZM216.052 204.252C206.745 204.503 200.898 208.075 200.69 217.567C200.744 223.905 204.597 230.643 215.957 230.497C222.815 230.905 231.004 226.776 230.562 217.412C230.204 210.965 227.077 204.557 216.052 204.252ZM215.626 210.563C218.421 210.563 220.698 213.553 220.698 217.221C220.698 220.887 218.421 223.878 215.626 223.878C212.827 223.878 210.549 220.888 210.549 217.221C210.549 213.553 212.827 210.563 215.626 210.563Z" fill="black"/>
</svg>
