<svg width="2134" height="484" viewBox="0 0 2134 484" fill="none" xmlns="http://www.w3.org/2000/svg">
<path fill-rule="evenodd" clip-rule="evenodd" d="M653.11 160.77L597.884 298.38H674.289L653.356 160.187L653.11 160.77ZM360.563 476.636L587.106 10.2822H758.333L853.868 476.636H703.484L692.434 414.498H546.55L512.984 476.636H360.563ZM925.034 476.636L990.661 10.2822H1142.17L1076.56 476.636H925.034ZM1932.67 160.187L1877.22 298.38H1953.63L1932.67 160.187ZM1639.89 476.636L1866.43 10.2822H2037.64L2133.17 476.636H1982.8L1971.75 414.498H1825.86L1792.3 476.636H1639.89ZM1304.96 258.575H1494.78L1624.87 474.029H1435L1304.96 258.575Z" fill="#0D6FAB"/>
<path fill-rule="evenodd" clip-rule="evenodd" d="M1324.68 225.476H1520.9L1691.31 10.9565H1495.09L1324.68 225.476ZM1128.46 475.339H1324.68L1495.09 258.173H1298.87L1128.46 475.339Z" fill="#DB8135"/>
<path fill-rule="evenodd" clip-rule="evenodd" d="M1199.21 8.33656H1382.36L1507.83 225.476H1324.68L1199.21 8.33656ZM365.064 26.9871L350.486 164.142C294.638 87.1149 165.226 140.265 155.057 236.228C142.139 358.04 266.701 386.457 334.494 314.721L319.877 452.201C299.644 462.162 279.865 469.853 260.346 475.079C241.358 480.22 221.817 483.042 202.15 483.484C177.871 483.99 155.887 481.435 136.057 475.858C116.727 470.607 98.5446 461.801 82.4395 449.892C51.8309 427.519 29.7045 399.077 16.0603 364.447C2.44202 329.714 -2.05848 290.533 2.59766 246.734C6.33296 211.547 15.2172 179.447 29.3413 150.342C43.3487 121.238 62.7514 94.819 87.4588 70.8508C110.817 47.9851 136.251 30.7483 163.786 19.0236C191.191 7.41568 221.125 1.21619 253.472 0.541763C272.542 0.0825153 291.593 2.08778 310.15 6.50784C328.632 10.9305 346.867 17.8305 365.064 26.9871Z" fill="#0D6FAB"/>
</svg>
