<svg width="83" height="73" viewBox="0 0 83 73" fill="none" xmlns="http://www.w3.org/2000/svg">
<path d="M41.5 36.5001C35.7938 36.5001 30.9089 34.7131 26.8453 31.1391C22.7818 27.5652 20.75 23.2688 20.75 18.2501C20.75 13.2313 22.7818 8.93496 26.8453 5.361C30.9089 1.78704 35.7938 6.10352e-05 41.5 6.10352e-05C47.2062 6.10352e-05 52.0911 1.78704 56.1547 5.361C60.2182 8.93496 62.25 13.2313 62.25 18.2501C62.25 23.2688 60.2182 27.5652 56.1547 31.1391C52.0911 34.7131 47.2062 36.5001 41.5 36.5001ZM0 73.0001V60.2251C0 57.6396 0.734896 55.2633 2.20469 53.0962C3.67448 50.929 5.70625 49.2751 8.3 48.1344C13.4875 45.8532 18.8695 44.1042 24.4461 42.8876C30.0227 41.6709 35.7073 41.0626 41.5 41.0626C47.2927 41.0626 52.9773 41.6709 58.5539 42.8876C64.1305 44.1042 69.5125 45.8532 74.7 48.1344C77.2938 49.2751 79.3255 50.929 80.7953 53.0962C82.2651 55.2633 83 57.6396 83 60.2251V73.0001H0ZM41.5 27.3751C44.3531 27.3751 46.7956 26.4816 48.8273 24.6946C50.8591 22.9076 51.875 20.7594 51.875 18.2501C51.875 15.7407 50.8591 13.5925 48.8273 11.8055C46.7956 10.0186 44.3531 9.12506 41.5 9.12506C38.6469 9.12506 36.2044 10.0186 34.1727 11.8055C32.1409 13.5925 31.125 15.7407 31.125 18.2501C31.125 20.7594 32.1409 22.9076 34.1727 24.6946C36.2044 26.4816 38.6469 27.3751 41.5 27.3751ZM62.25 53.3813V63.8751H72.625V60.2251C72.625 59.3886 72.4089 58.6282 71.9766 57.9438C71.5443 57.2594 70.8958 56.7271 70.0312 56.3469C68.8208 55.7386 67.5456 55.1873 66.2055 54.693C64.8654 54.1988 63.5469 53.7615 62.25 53.3813ZM31.125 50.986V57.0313H51.875V50.986C50.1458 50.6818 48.4167 50.4727 46.6875 50.3587C44.9583 50.2446 43.2292 50.1876 41.5 50.1876C39.7708 50.1876 38.0417 50.2446 36.3125 50.3587C34.5833 50.4727 32.8542 50.6818 31.125 50.986ZM10.375 63.8751H20.75V53.3813C19.4531 53.7615 18.1346 54.1988 16.7945 54.693C15.4544 55.1873 14.1792 55.7386 12.9688 56.3469C12.1042 56.7271 11.4557 57.2594 11.0234 57.9438C10.5911 58.6282 10.375 59.3886 10.375 60.2251V63.8751Z" fill="white"/>
</svg>
