<svg width="19" height="17" viewBox="0 0 19 17" fill="none" xmlns="http://www.w3.org/2000/svg">
<path d="M2.25631 0C1.01556 0 0 0.890149 0 1.97768V14.6349C0 15.7224 1.01556 16.6125 2.25631 16.6125H9.85197C9.9007 16.6196 9.95043 16.6196 9.99916 16.6125H12.5595C12.6083 16.6196 12.658 16.6196 12.7067 16.6125H16.6967C17.9375 16.6125 18.953 15.7224 18.953 14.6349V1.97768C18.953 0.890149 17.9375 0 16.6967 0H2.25631ZM2.25631 0.791073H16.6967C17.4496 0.791073 18.0505 1.31774 18.0505 1.97768V14.6349C18.0505 15.2948 17.4496 15.8215 16.6967 15.8215H13.0866V10.284H14.8106L15.4425 7.5152H13.0866V6.72412C13.0866 6.50362 13.1105 6.48638 13.195 6.43829C13.2795 6.39019 13.5405 6.32859 13.9891 6.32859H15.3429V4.10138L15.0856 3.99399C15.0856 3.99399 14.049 3.55983 12.6353 3.55983C11.62 3.55983 10.7859 3.91441 10.2521 4.49923C9.71834 5.08405 9.4765 5.86713 9.4765 6.72412V7.5152H8.12272V10.284H9.4765V15.8215H2.25631C1.50339 15.8215 0.902524 15.2948 0.902524 14.6349V1.97768C0.902524 1.31774 1.50339 0.791073 2.25631 0.791073ZM12.6353 4.3509C13.5735 4.3509 14.1639 4.53224 14.4404 4.62824V5.53751H13.9891C13.4698 5.53751 13.0536 5.57517 12.7032 5.77468C12.3528 5.9742 12.1841 6.35291 12.1841 6.72412V8.30627H14.3408L14.0702 9.49288H12.1841V15.8215H10.379V9.49288H9.02524V8.30627H10.379V6.72412C10.379 5.99897 10.5885 5.39767 10.9572 4.99365C11.326 4.58963 11.8456 4.3509 12.6353 4.3509Z" fill="#2BE456"/>
</svg>
