<svg width="21" height="19" viewBox="0 0 21 19" fill="none" xmlns="http://www.w3.org/2000/svg">
<path d="M10.5 9.5C9.05625 9.5 7.82031 9.0349 6.79219 8.10469C5.76406 7.17448 5.25 6.05625 5.25 4.75C5.25 3.44375 5.76406 2.32552 6.79219 1.39531C7.82031 0.465104 9.05625 0 10.5 0C11.9437 0 13.1797 0.465104 14.2078 1.39531C15.2359 2.32552 15.75 3.44375 15.75 4.75C15.75 6.05625 15.2359 7.17448 14.2078 8.10469C13.1797 9.0349 11.9437 9.5 10.5 9.5ZM0 19V15.675C0 15.0021 0.185938 14.3836 0.557812 13.8195C0.929687 13.2555 1.44375 12.825 2.1 12.5281C3.4125 11.9344 4.77422 11.4792 6.18516 11.1625C7.59609 10.8458 9.03437 10.6875 10.5 10.6875C11.9656 10.6875 13.4039 10.8458 14.8148 11.1625C16.2258 11.4792 17.5875 11.9344 18.9 12.5281C19.5562 12.825 20.0703 13.2555 20.4422 13.8195C20.8141 14.3836 21 15.0021 21 15.675V19H0ZM10.5 7.125C11.2219 7.125 11.8398 6.89245 12.3539 6.42734C12.868 5.96224 13.125 5.40312 13.125 4.75C13.125 4.09687 12.868 3.53776 12.3539 3.07266C11.8398 2.60755 11.2219 2.375 10.5 2.375C9.77812 2.375 9.16016 2.60755 8.64609 3.07266C8.13203 3.53776 7.875 4.09687 7.875 4.75C7.875 5.40312 8.13203 5.96224 8.64609 6.42734C9.16016 6.89245 9.77812 7.125 10.5 7.125ZM15.75 13.8938V16.625H18.375V15.675C18.375 15.4573 18.3203 15.2594 18.2109 15.0813C18.1016 14.9031 17.9375 14.7646 17.7188 14.6656C17.4125 14.5073 17.0898 14.3638 16.7508 14.2352C16.4117 14.1065 16.0781 13.9927 15.75 13.8938ZM7.875 13.2703V14.8438H13.125V13.2703C12.6875 13.1911 12.25 13.1367 11.8125 13.107C11.375 13.0773 10.9375 13.0625 10.5 13.0625C10.0625 13.0625 9.625 13.0773 9.1875 13.107C8.75 13.1367 8.3125 13.1911 7.875 13.2703ZM2.625 16.625H5.25V13.8938C4.92188 13.9927 4.58828 14.1065 4.24922 14.2352C3.91016 14.3638 3.5875 14.5073 3.28125 14.6656C3.0625 14.7646 2.89844 14.9031 2.78906 15.0813C2.67969 15.2594 2.625 15.4573 2.625 15.675V16.625Z" fill="white"/>
</svg>
