<svg width="104" height="98" viewBox="0 0 104 98" fill="none" xmlns="http://www.w3.org/2000/svg">
<path d="M88.6527 49.7459L52.463 17.6958L16.251 49.7593V95.575C16.251 96.7583 17.2071 97.7075 18.3904 97.7075H41.021V77.6192C41.021 76.436 41.9702 75.4798 43.1535 75.4798H61.7488C62.9321 75.4798 63.8813 76.436 63.8813 77.6192V97.7075H86.5185C87.7018 97.7075 88.651 96.7583 88.651 95.575V49.7437L88.6527 49.7459Z" fill="white"/>
<path d="M52.2518 0.156189L0.893555 45.6297L6.30346 51.7327L52.4626 10.8604L98.6106 51.7327L104.01 45.6297L52.6628 0.156189L52.4633 0.387291L52.2532 0.156189H52.2518Z" fill="white"/>
<path d="M16.2511 6.70245H29.2703L29.1569 14.4135L16.251 26.0724L16.2511 6.70245Z" fill="white"/>
</svg>
