<svg width="20" height="18" viewBox="0 0 20 18" fill="none" xmlns="http://www.w3.org/2000/svg">
<path d="M5.86641 0C2.63198 0 0 2.30696 0 5.14198V12.2616C0 15.0967 2.63198 17.4036 5.86641 17.4036H13.9891C17.2236 17.4036 19.8555 15.0967 19.8555 12.2616V5.14198C19.8555 2.30696 17.2236 0 13.9891 0H5.86641ZM5.86641 0.791073H13.9891C16.7357 0.791073 18.953 2.73455 18.953 5.14198V12.2616C18.953 14.6691 16.7357 16.6125 13.9891 16.6125H5.86641C3.11981 16.6125 0.902524 14.6691 0.902524 12.2616V5.14198C0.902524 2.73455 3.11981 0.791073 5.86641 0.791073ZM15.3429 3.16429C15.1035 3.16429 14.874 3.24764 14.7047 3.39599C14.5355 3.54435 14.4404 3.74556 14.4404 3.95537C14.4404 4.16517 14.5355 4.36639 14.7047 4.51474C14.874 4.6631 15.1035 4.74644 15.3429 4.74644C15.5823 4.74644 15.8118 4.6631 15.9811 4.51474C16.1504 4.36639 16.2454 4.16517 16.2454 3.95537C16.2454 3.74556 16.1504 3.54435 15.9811 3.39599C15.8118 3.24764 15.5823 3.16429 15.3429 3.16429ZM9.92777 4.3509C7.19164 4.3509 4.96388 6.30355 4.96388 8.70181C4.96388 11.1001 7.19164 13.0527 9.92777 13.0527C12.6639 13.0527 14.8917 11.1001 14.8917 8.70181C14.8917 6.30355 12.6639 4.3509 9.92777 4.3509ZM9.92777 5.14198C12.1761 5.14198 13.9891 6.73108 13.9891 8.70181C13.9891 10.6725 12.1761 12.2616 9.92777 12.2616C7.6794 12.2616 5.86641 10.6725 5.86641 8.70181C5.86641 6.73108 7.6794 5.14198 9.92777 5.14198Z" fill="#2BE456"/>
</svg>
