<svg width="231" height="231" viewBox="0 0 231 231" fill="none" xmlns="http://www.w3.org/2000/svg">
<path fill-rule="evenodd" clip-rule="evenodd" d="M42.572 0.342031L189.084 0.428621C212.081 0.428621 231.031 19.3774 230.943 42.4615V188.972C230.943 212.057 211.995 230.92 188.912 230.92L42.3135 230.833C19.2294 230.749 0.367188 211.887 0.367188 188.801L0.539056 42.2884C0.539056 19.2055 19.4026 0.255441 42.572 0.342031Z" fill="#33348E"/>
<path fill-rule="evenodd" clip-rule="evenodd" d="M198.473 105.51H181.763L174.873 118.602H186.586L198.473 105.51ZM209.584 126.786H193.305V161.927C193.305 172.694 186.068 175.795 180.731 175.795C175.647 175.795 170.047 173.899 170.135 164.509V126.785H153.856L153.77 166.835C153.77 182.337 162.644 189.228 174.874 189.228C183.399 189.314 190.034 185.609 193.736 179.065H193.908V187.593H209.585V126.786H209.584ZM141.107 142.89C141.107 127.818 125.261 125.149 116.474 125.149C103.813 125.149 90.6339 127.818 88.6528 146.422H104.415C104.932 142.892 106.396 137.981 114.492 137.981C118.713 137.981 125.261 138.327 125.261 145.046C125.261 148.49 122.073 149.525 119.488 149.869L104.846 152.022C94.4242 153.487 86.673 159.601 86.673 171.489C86.673 184.063 96.32 189.23 105.535 189.23C116.733 189.23 121.986 184.149 125.604 180.447C125.948 183.807 126.207 184.667 127.155 187.596L141.195 187.509C141.195 180.791 141.108 175.881 141.108 175.796L141.107 142.89ZM71.6851 105.51H55.4062V126.698H46.9649V138.154H55.3196V175.104C55.3196 182.941 57.8176 188.283 71.9435 188.283H74.0978C76.6811 188.283 79.2643 188.109 81.7636 188.025V175.879C80.6432 175.965 79.4388 176.137 78.4037 176.137C71.7717 176.137 71.5985 174.758 71.5985 171.14L71.6851 138.153H81.8489V126.697H71.6851V105.51ZM39.4723 105.423H21.901L21.8145 187.508H39.3857L39.4723 105.423Z" fill="#FFF22D"/>
<path fill-rule="evenodd" clip-rule="evenodd" d="M125.261 165.801V157.965C123.623 159.256 120.865 160.288 114.148 161.237C108.033 162.269 103.037 163.82 103.037 170.453C103.037 175.965 107.516 177.774 110.616 177.774C117.853 177.775 125.261 173.21 125.261 165.801Z" fill="#33348E"/>
</svg>
