<svg width="18" height="18" viewBox="0 0 18 18" fill="none" xmlns="http://www.w3.org/2000/svg">
<path d="M2.60001 0.599976C1.5002 0.599976 0.600006 1.50017 0.600006 2.59998V15.4C0.600006 16.4998 1.5002 17.4 2.60001 17.4H15.4C16.4998 17.4 17.4 16.4998 17.4 15.4V2.59998C17.4 1.50017 16.4998 0.599976 15.4 0.599976H2.60001ZM2.60001 1.39998H15.4C16.0674 1.39998 16.6 1.93258 16.6 2.59998V15.4C16.6 16.0674 16.0674 16.6 15.4 16.6H2.60001C1.93261 16.6 1.40001 16.0674 1.40001 15.4V2.59998C1.40001 1.93258 1.93261 1.39998 2.60001 1.39998ZM4.60001 3.40466C4.16192 3.40466 3.76769 3.53561 3.47579 3.78123C3.18388 4.02684 3.00469 4.39378 3.00469 4.78669C3.00469 5.53357 3.65252 6.11582 4.47657 6.17341L4.47813 6.17419C4.5174 6.18758 4.55853 6.1947 4.60001 6.19529C5.50921 6.19529 6.19532 5.55841 6.19532 4.78669C6.19525 4.77966 6.19499 4.77262 6.19454 4.7656C6.15384 4.00551 5.47618 3.40466 4.60001 3.40466ZM4.60001 4.19529C5.1569 4.19529 5.37679 4.44399 5.40079 4.79685C5.39593 5.13935 5.18404 5.40466 4.60001 5.40466C4.04584 5.40466 3.79532 5.12087 3.79532 4.78669C3.79532 4.61961 3.85629 4.49369 3.98438 4.38591C4.11247 4.27813 4.31809 4.19529 4.60001 4.19529ZM3.40001 6.59998C3.29392 6.59999 3.19219 6.64213 3.11718 6.71714C3.04216 6.79216 3.00002 6.89389 3.00001 6.99998V14.6C3.00002 14.7061 3.04216 14.8078 3.11718 14.8828C3.19219 14.9578 3.29392 15 3.40001 15H5.80001C5.90609 15 6.00782 14.9578 6.08284 14.8828C6.15785 14.8078 6.2 14.7061 6.20001 14.6V12.2539V6.99998C6.2 6.89389 6.15785 6.79216 6.08284 6.71714C6.00782 6.64213 5.90609 6.59999 5.80001 6.59998H3.40001ZM7.00001 6.59998C6.89392 6.59999 6.79219 6.64213 6.71717 6.71714C6.64216 6.79216 6.60002 6.89389 6.60001 6.99998V14.6C6.60002 14.7061 6.64216 14.8078 6.71717 14.8828C6.79219 14.9578 6.89392 15 7.00001 15H9.40001C9.50609 15 9.60782 14.9578 9.68284 14.8828C9.75785 14.8078 9.79999 14.7061 9.80001 14.6V10.6C9.80001 10.2681 9.89056 9.93799 10.05 9.72185C10.2094 9.50571 10.4106 9.376 10.793 9.38279C11.1873 9.38957 11.396 9.52464 11.5539 9.73669C11.7118 9.94874 11.8 10.2666 11.8 10.6V14.6C11.8 14.7061 11.8422 14.8078 11.9172 14.8828C11.9922 14.9578 12.0939 15 12.2 15H14.6C14.7061 15 14.8078 14.9578 14.8828 14.8828C14.9578 14.8078 15 14.7061 15 14.6V10.3047C15 9.12005 14.6491 8.18171 14.0477 7.54685C13.4462 6.91199 12.6097 6.59998 11.725 6.59998C10.8842 6.59998 10.2443 6.88193 9.80001 7.16951V6.99998C9.79999 6.89389 9.75785 6.79216 9.68284 6.71714C9.60782 6.64213 9.50609 6.59999 9.40001 6.59998H7.00001ZM3.80001 7.39998H5.40001V12.2539V14.2H3.80001V7.39998ZM7.40001 7.39998H9.00001V8.02419C9.00003 8.10807 9.02642 8.18981 9.07544 8.25787C9.12446 8.32593 9.19363 8.37686 9.27317 8.40346C9.35272 8.43006 9.43861 8.43099 9.51871 8.40611C9.59881 8.38123 9.66906 8.33181 9.71954 8.26482C9.71954 8.26482 10.3477 7.39998 11.725 7.39998C12.4263 7.39998 13.0278 7.63301 13.4672 8.09685C13.9066 8.56069 14.2 9.27528 14.2 10.3047V14.2H12.6V10.6C12.6 10.1333 12.4882 9.65082 12.1961 9.25857C11.904 8.86632 11.4127 8.59321 10.807 8.58279C10.1982 8.57198 9.69901 8.85077 9.40626 9.24763C9.1135 9.64449 9.00001 10.1318 9.00001 10.6V14.2H7.40001V7.39998Z" fill="#2BE456"/>
</svg>
