<svg width="787" height="820" viewBox="0 0 787 820" fill="none" xmlns="http://www.w3.org/2000/svg">
<g clip-path="url(#clip0_13_567)">
<path d="M602.546 810.727C592.47 795.889 586.35 772.45 587.955 749.632C589.56 726.814 599.501 705.837 612.396 700.991C625.29 696.145 639.99 709.559 643.906 731.511C646.062 689.188 648.545 645.091 661.457 609.049C673.148 576.413 693.397 553.061 715.343 548.884C737.288 544.706 760.394 560.485 774.081 590.672C787.767 620.859 791.119 664.744 781.533 699.402C774.471 724.932 761.462 743.933 747.831 759.391C703.784 808.919 650.956 829.061 599.066 816.109L602.546 810.727Z" fill="#F2F2F2"/>
<path d="M752.379 561.359C734.271 587.063 717.659 615.812 702.784 647.188C679.503 696.123 660.664 750.989 646.923 809.873C645.917 814.169 649.919 816.039 650.914 811.791C673.397 716.092 709.288 631.743 755.306 566.46C757.372 563.528 754.429 558.451 752.379 561.359Z" fill="white"/>
<path d="M253.348 806.696C267.187 786.316 275.593 754.122 273.389 722.781C271.184 691.44 257.53 662.628 239.819 655.973C222.108 649.318 201.919 667.741 196.54 697.893C193.579 639.761 190.167 579.195 172.433 529.69C156.376 484.866 128.564 452.792 98.4213 447.054C68.2791 441.316 36.5432 462.988 17.7446 504.45C-1.05394 545.912 -5.6567 606.188 7.50934 653.79C17.2083 688.857 35.0772 714.954 53.7994 736.185C113.53 803.92 187.625 832.169 258.128 814.087" fill="#F2F2F2"/>
<path d="M47.5517 464.189C72.4228 499.493 95.2393 538.979 115.671 582.074C136.107 625.125 154.098 671.529 169.392 720.634C177.941 748.18 185.62 776.518 192.396 805.523C193.778 811.423 188.28 813.992 186.914 808.157C174.912 757.022 160.063 708.06 142.581 661.973C125.183 616.053 105.27 573.182 83.1226 533.963C70.5957 511.791 57.3788 490.837 43.5317 471.195C40.6934 467.167 44.7369 460.194 47.5517 464.189Z" fill="white"/>
<path d="M564.921 818.205H234.743V227.805C234.743 102.192 293.381 -7.62939e-06 365.457 -7.62939e-06H434.207C506.283 -7.62939e-06 564.921 102.192 564.921 227.805V818.205Z" fill="#F2F2F2"/>
<path d="M496.172 818.205H234.743V227.805C234.671 179.673 243.416 132.758 259.706 93.8895C260.307 92.4631 260.906 91.0552 261.523 89.6627C269.403 71.6528 278.779 55.7918 289.343 42.6032C289.94 41.8464 290.539 41.1029 291.147 40.3593C299.987 29.698 309.55 20.9827 319.617 14.4116C320.215 14.0167 320.823 13.621 321.432 13.2415C330.537 7.57883 339.975 3.69992 349.573 1.6764C350.168 1.53475 350.779 1.42391 351.389 1.31307C360.742 -0.429708 370.175 -0.429708 379.527 1.31307C380.136 1.42391 380.747 1.53474 381.349 1.67792C390.944 3.70157 400.38 7.58 409.483 13.2416C410.092 13.6211 410.7 14.0167 411.3 14.4124C421.243 20.9006 430.693 29.4859 439.439 39.9767C440.046 40.7041 440.654 41.4478 441.254 42.1913C447.175 49.558 452.737 57.7648 457.883 66.728C462.01 73.9176 465.855 81.5812 469.394 89.6674C470.009 91.0553 470.608 92.4632 471.208 93.8873C487.498 132.756 496.244 179.672 496.172 227.805V818.205Z" fill="#CCCCCC"/>
<path d="M474.914 554.141C482.907 554.141 489.387 542.848 489.387 528.917C489.387 514.986 482.907 503.693 474.914 503.693C466.92 503.693 460.44 514.986 460.44 528.917C460.44 542.848 466.92 554.141 474.914 554.141Z" fill="#2BE456"/>
<path d="M537.873 800.521H526.783L521.506 725.972L537.875 725.973L537.873 800.521Z" fill="#FFB8B8"/>
<path d="M518.861 794.999H540.249V818.468H505.394C505.394 815.386 505.742 812.334 506.419 809.487C507.096 806.639 508.088 804.052 509.338 801.873C510.589 799.693 512.073 797.965 513.707 796.785C515.341 795.606 517.092 794.999 518.861 794.999Z" fill="#2F2E41"/>
<path d="M593.053 800.521H581.963L576.687 725.972L593.055 725.973L593.053 800.521Z" fill="#FFB8B8"/>
<path d="M574.041 794.999H595.429V818.468H560.574C560.574 815.386 560.923 812.334 561.6 809.487C562.276 806.639 563.268 804.052 564.519 801.873C565.769 799.693 567.254 797.965 568.888 796.785C570.522 795.606 572.273 794.999 574.041 794.999Z" fill="#2F2E41"/>
<path d="M482.239 533.914C481.441 531.865 480.911 529.537 480.685 527.092C480.459 524.648 480.544 522.147 480.933 519.765C481.322 517.384 482.006 515.18 482.937 513.309C483.867 511.439 485.022 509.946 486.319 508.937L524.019 327.849L542.57 345.493L499.525 518.547C500.353 522.457 500.329 526.761 499.458 530.644C498.587 534.526 496.929 537.716 494.798 539.611C492.668 541.505 490.212 541.971 487.897 540.921C485.583 539.871 483.569 537.378 482.239 533.914Z" fill="#FFB8B8"/>
<path d="M587.388 567.941C586.156 566.709 585.093 565.022 584.276 562.997C583.458 560.973 582.905 558.66 582.655 556.223C582.406 553.785 582.466 551.282 582.831 548.89C583.197 546.497 583.859 544.274 584.771 542.375L573.092 350.815L594.204 352.496L599.057 540.921C600.786 543.802 601.847 547.689 602.041 551.844C602.235 555.999 601.548 560.133 600.109 563.464C598.671 566.794 596.582 569.09 594.237 569.915C591.892 570.74 589.456 570.038 587.388 567.941Z" fill="#FFB8B8"/>
<path d="M553.709 294.307C565.98 294.307 575.927 276.971 575.927 255.587C575.927 234.202 565.98 216.866 553.709 216.866C541.439 216.866 531.492 234.202 531.492 255.587C531.492 276.971 541.439 294.307 553.709 294.307Z" fill="#FFB8B8"/>
<path d="M587.246 524.374H520.264L520.344 523.466C520.465 522.108 532.282 387.195 523.566 343.057C522.692 338.72 522.769 333.972 523.782 329.727C524.796 325.483 526.674 322.042 529.057 320.066C541.514 309.842 565.428 297.252 585.612 327.806C588.582 332.376 590.902 338.087 592.387 344.489C593.872 350.89 594.482 357.806 594.169 364.69L587.246 524.374Z" fill="#2BE456"/>
<path d="M533.129 407.133L502.972 396.47L517.108 338.093C517.954 332.439 520.052 327.6 522.942 324.638C525.832 321.677 529.279 320.834 532.525 322.294C535.772 323.755 538.553 327.4 540.259 332.43C541.966 337.459 542.458 343.463 541.628 349.125L533.129 407.133Z" fill="#2BE456"/>
<path d="M571.751 426.93L569.939 354.503C568.564 340.888 573.036 328.017 579.914 325.914C586.794 323.817 593.512 333.26 594.892 346.975L601.707 414.651L571.751 426.93Z" fill="#2BE456"/>
<path d="M585.018 515.703C595.796 587.24 596.972 678.193 594.064 777.403L579.59 774.25L553.357 585.07L538.884 777.403L522.601 775.826C517.736 671.73 513 582.365 520.792 523.586L585.018 515.703Z" fill="#2F2E41"/>
<path d="M568.349 285.511C564.204 293.206 556.506 289.075 555.966 278.563C555.924 277.747 555.927 276.926 555.976 276.111C556.254 271.454 557.798 267.227 557.428 262.31C557.345 261.087 557.083 259.921 556.668 258.923C553.365 251.215 545.612 262.37 542.495 255.392C540.583 251.114 542.83 244.377 541.364 239.595C539.428 233.283 533.694 236.397 530.098 232.94C526.097 229.095 526.336 218.397 528.97 211.89C532.182 203.954 537.813 199.72 543.374 199.11C548.935 198.5 554.458 201.119 559.65 204.646C565.549 208.652 571.399 214.189 575.029 223.229C579.443 234.222 579.868 249.001 577.66 261.856C576.317 269.675 571.734 279.228 568.349 285.511Z" fill="#2F2E41"/>
<path d="M759.845 819.219H91.9863C91.7012 819.218 91.4281 819.02 91.2267 818.668C91.0254 818.316 90.9124 817.839 90.9124 817.342C90.9124 816.845 91.0254 816.369 91.2267 816.017C91.4281 815.665 91.7012 815.467 91.9863 815.465H759.845C760.13 815.467 760.404 815.665 760.605 816.017C760.806 816.369 760.919 816.845 760.919 817.342C760.919 817.839 760.806 818.316 760.605 818.668C760.404 819.02 760.13 819.218 759.845 819.219Z" fill="#3F3D56"/>
<path d="M424.256 647.154H306.659C305.11 647.169 303.621 646.112 302.519 644.216C301.416 642.32 300.791 639.74 300.779 637.041V179.588C300.791 176.889 301.416 174.308 302.519 172.412C303.621 170.516 305.11 169.459 306.659 169.474H424.256C425.805 169.459 427.294 170.516 428.396 172.412C429.498 174.308 430.124 176.889 430.136 179.588V637.041C430.124 639.74 429.498 642.32 428.396 644.216C427.294 646.112 425.805 647.169 424.256 647.154Z" fill="white"/>
<path d="M430.136 317.491H300.779V320.644H430.136V317.491Z" fill="#CCCCCC"/>
<path d="M430.588 497.387H301.231V500.54H430.588V497.387Z" fill="#CCCCCC"/>
<path d="M343.295 169.474H341.486V648.731H343.295V169.474Z" fill="#CCCCCC"/>
<path d="M388.525 169.474H386.716V648.731H388.525V169.474Z" fill="#CCCCCC"/>
</g>
<defs>
<clipPath id="clip0_13_567">
<rect width="787" height="820" fill="white"/>
</clipPath>
</defs>
</svg>
