<svg width="254" height="187" viewBox="0 0 254 187" fill="none" xmlns="http://www.w3.org/2000/svg">
<line x1="61.7439" y1="1.3285" x2="119.741" y2="65.3285" stroke="black" stroke-width="2"/>
<line x1="1.26679" y1="65.32" x2="60.6221" y2="1.3201" stroke="black" stroke-width="2"/>
<rect x="1" y="67" width="119" height="119" stroke="black" stroke-width="2"/>
<path d="M169.239 112.273C169.239 114.114 168.907 115.705 168.242 117.045C167.577 118.386 166.665 119.42 165.506 120.148C164.347 120.875 163.023 121.239 161.535 121.239C160.046 121.239 158.722 120.875 157.563 120.148C156.404 119.42 155.492 118.386 154.827 117.045C154.163 115.705 153.83 114.114 153.83 112.273C153.83 110.432 154.163 108.841 154.827 107.5C155.492 106.159 156.404 105.125 157.563 104.398C158.722 103.67 160.046 103.307 161.535 103.307C163.023 103.307 164.347 103.67 165.506 104.398C166.665 105.125 167.577 106.159 168.242 107.5C168.907 108.841 169.239 110.432 169.239 112.273ZM167.194 112.273C167.194 110.761 166.941 109.486 166.435 108.446C165.935 107.406 165.256 106.619 164.398 106.085C163.546 105.551 162.592 105.284 161.535 105.284C160.478 105.284 159.521 105.551 158.663 106.085C157.81 106.619 157.131 107.406 156.626 108.446C156.126 109.486 155.876 110.761 155.876 112.273C155.876 113.784 156.126 115.06 156.626 116.099C157.131 117.139 157.81 117.926 158.663 118.46C159.521 118.994 160.478 119.261 161.535 119.261C162.592 119.261 163.546 118.994 164.398 118.46C165.256 117.926 165.935 117.139 166.435 116.099C166.941 115.06 167.194 113.784 167.194 112.273ZM172.793 121V103.545H178.691C180.055 103.545 181.174 103.778 182.049 104.244C182.924 104.705 183.572 105.338 183.992 106.145C184.413 106.952 184.623 107.869 184.623 108.898C184.623 109.926 184.413 110.838 183.992 111.634C183.572 112.429 182.927 113.054 182.058 113.509C181.188 113.957 180.077 114.182 178.725 114.182H173.952V112.273H178.657C179.589 112.273 180.339 112.136 180.907 111.864C181.481 111.591 181.896 111.205 182.151 110.705C182.413 110.199 182.543 109.597 182.543 108.898C182.543 108.199 182.413 107.588 182.151 107.065C181.89 106.543 181.472 106.139 180.898 105.855C180.325 105.565 179.566 105.42 178.623 105.42H174.907V121H172.793ZM181.009 113.159L185.305 121H182.85L178.623 113.159H181.009ZM190.259 103.545V121H188.145V103.545H190.259ZM206.428 109C206.241 108.426 205.994 107.912 205.687 107.457C205.386 106.997 205.025 106.605 204.604 106.281C204.19 105.957 203.718 105.71 203.19 105.54C202.661 105.369 202.082 105.284 201.451 105.284C200.417 105.284 199.477 105.551 198.63 106.085C197.783 106.619 197.11 107.406 196.61 108.446C196.11 109.486 195.86 110.761 195.86 112.273C195.86 113.784 196.113 115.06 196.619 116.099C197.124 117.139 197.809 117.926 198.673 118.46C199.536 118.994 200.508 119.261 201.587 119.261C202.587 119.261 203.468 119.048 204.229 118.622C204.996 118.19 205.593 117.582 206.019 116.798C206.451 116.009 206.667 115.08 206.667 114.011L207.315 114.148H202.065V112.273H208.712V114.148C208.712 115.585 208.406 116.835 207.792 117.898C207.184 118.96 206.343 119.784 205.269 120.369C204.201 120.949 202.974 121.239 201.587 121.239C200.042 121.239 198.684 120.875 197.513 120.148C196.349 119.42 195.44 118.386 194.786 117.045C194.138 115.705 193.815 114.114 193.815 112.273C193.815 110.892 193.999 109.651 194.369 108.548C194.744 107.44 195.272 106.497 195.954 105.719C196.636 104.94 197.442 104.344 198.374 103.929C199.306 103.514 200.332 103.307 201.451 103.307C202.371 103.307 203.229 103.446 204.025 103.724C204.826 103.997 205.539 104.386 206.164 104.892C206.795 105.392 207.32 105.991 207.741 106.69C208.161 107.384 208.451 108.153 208.61 109H206.428ZM212.509 121H210.293L216.702 103.545H218.884L225.293 121H223.077L217.862 106.307H217.725L212.509 121ZM213.327 114.182H222.259V116.057H213.327V114.182ZM228.012 103.545H230.535L236.467 118.034H236.671L242.603 103.545H245.126V121H243.148V107.739H242.978L237.523 121H235.614L230.16 107.739H229.989V121H228.012V103.545ZM251.477 103.545V121H249.364V103.545H251.477ZM158.536 132.545V150H156.422V132.545H158.536ZM162.774 132.545H165.297L171.228 147.034H171.433L177.365 132.545H179.887V150H177.91V136.739H177.74L172.285 150H170.376L164.922 136.739H164.751V150H162.774V132.545ZM198.853 141.273C198.853 143.114 198.52 144.705 197.855 146.045C197.191 147.386 196.279 148.42 195.12 149.148C193.961 149.875 192.637 150.239 191.148 150.239C189.659 150.239 188.336 149.875 187.176 149.148C186.017 148.42 185.105 147.386 184.441 146.045C183.776 144.705 183.444 143.114 183.444 141.273C183.444 139.432 183.776 137.841 184.441 136.5C185.105 135.159 186.017 134.125 187.176 133.398C188.336 132.67 189.659 132.307 191.148 132.307C192.637 132.307 193.961 132.67 195.12 133.398C196.279 134.125 197.191 135.159 197.855 136.5C198.52 137.841 198.853 139.432 198.853 141.273ZM196.807 141.273C196.807 139.761 196.554 138.486 196.049 137.446C195.549 136.406 194.87 135.619 194.012 135.085C193.159 134.551 192.205 134.284 191.148 134.284C190.091 134.284 189.134 134.551 188.276 135.085C187.424 135.619 186.745 136.406 186.239 137.446C185.739 138.486 185.489 139.761 185.489 141.273C185.489 142.784 185.739 144.06 186.239 145.099C186.745 146.139 187.424 146.926 188.276 147.46C189.134 147.994 190.091 148.261 191.148 148.261C192.205 148.261 193.159 147.994 194.012 147.46C194.87 146.926 195.549 146.139 196.049 145.099C196.554 144.06 196.807 142.784 196.807 141.273ZM202.302 132.545L207.484 147.239H207.689L212.87 132.545H215.086L208.677 150H206.495L200.086 132.545H202.302ZM217.805 150V132.545H228.339V134.42H219.919V140.318H227.794V142.193H219.919V148.125H228.475V150H217.805ZM234.262 132.545V150H232.149V132.545H234.262ZM248.046 136.909C247.944 136.045 247.529 135.375 246.801 134.898C246.074 134.42 245.182 134.182 244.125 134.182C243.353 134.182 242.676 134.307 242.097 134.557C241.523 134.807 241.074 135.151 240.75 135.588C240.432 136.026 240.273 136.523 240.273 137.08C240.273 137.545 240.384 137.946 240.605 138.281C240.833 138.611 241.123 138.886 241.475 139.108C241.827 139.324 242.196 139.503 242.583 139.645C242.969 139.781 243.324 139.892 243.648 139.977L245.421 140.455C245.875 140.574 246.381 140.739 246.938 140.949C247.5 141.159 248.037 141.446 248.549 141.81C249.066 142.168 249.492 142.628 249.827 143.19C250.162 143.753 250.33 144.443 250.33 145.261C250.33 146.205 250.083 147.057 249.588 147.818C249.1 148.58 248.384 149.185 247.441 149.634C246.503 150.082 245.364 150.307 244.023 150.307C242.773 150.307 241.691 150.105 240.776 149.702C239.867 149.298 239.151 148.736 238.628 148.014C238.111 147.293 237.819 146.455 237.75 145.5H239.932C239.989 146.159 240.211 146.705 240.597 147.136C240.989 147.562 241.483 147.881 242.08 148.091C242.682 148.295 243.33 148.398 244.023 148.398C244.83 148.398 245.554 148.267 246.196 148.006C246.838 147.739 247.347 147.369 247.722 146.898C248.097 146.42 248.284 145.864 248.284 145.227C248.284 144.648 248.123 144.176 247.799 143.812C247.475 143.449 247.049 143.153 246.52 142.926C245.992 142.699 245.421 142.5 244.807 142.33L242.659 141.716C241.296 141.324 240.216 140.764 239.421 140.037C238.625 139.31 238.228 138.358 238.228 137.182C238.228 136.205 238.492 135.352 239.02 134.625C239.554 133.892 240.27 133.324 241.168 132.92C242.071 132.511 243.08 132.307 244.194 132.307C245.319 132.307 246.319 132.509 247.194 132.912C248.069 133.31 248.762 133.855 249.273 134.548C249.79 135.241 250.063 136.028 250.091 136.909H248.046Z" fill="white"/>
</svg>
