<svg width="10" height="76" viewBox="0 0 10 76" fill="none" xmlns="http://www.w3.org/2000/svg">
<path d="M1.96875 27.8281C1.96875 27.1615 2.19792 26.6042 2.65625 26.1562C3.125 25.7083 3.74479 25.4844 4.51562 25.4844C5.28646 25.4844 5.90104 25.7083 6.35938 26.1562C6.82812 26.6042 7.0625 27.1615 7.0625 27.8281C7.0625 28.4948 6.82812 29.0521 6.35938 29.5C5.90104 29.9479 5.28646 30.1719 4.51562 30.1719C3.74479 30.1719 3.125 29.9479 2.65625 29.5C2.19792 29.0521 1.96875 28.4948 1.96875 27.8281Z" fill="white"/>
<path d="M1.96875 46.8281C1.96875 46.1615 2.19792 45.6042 2.65625 45.1562C3.125 44.7083 3.74479 44.4844 4.51562 44.4844C5.28646 44.4844 5.90104 44.7083 6.35938 45.1562C6.82812 45.6042 7.0625 46.1615 7.0625 46.8281C7.0625 47.4948 6.82812 48.0521 6.35938 48.5C5.90104 48.9479 5.28646 49.1719 4.51562 49.1719C3.74479 49.1719 3.125 48.9479 2.65625 48.5C2.19792 48.0521 1.96875 47.4948 1.96875 46.8281Z" fill="white"/>
<path d="M1.96875 65.8281C1.96875 65.1615 2.19792 64.6042 2.65625 64.1562C3.125 63.7083 3.74479 63.4844 4.51562 63.4844C5.28646 63.4844 5.90104 63.7083 6.35938 64.1562C6.82812 64.6042 7.0625 65.1615 7.0625 65.8281C7.0625 66.4948 6.82812 67.0521 6.35938 67.5C5.90104 67.9479 5.28646 68.1719 4.51562 68.1719C3.74479 68.1719 3.125 67.9479 2.65625 67.5C2.19792 67.0521 1.96875 66.4948 1.96875 65.8281Z" fill="white"/>
</svg>
