<svg width="21" height="19" viewBox="0 0 21 19" fill="none" xmlns="http://www.w3.org/2000/svg">
<path d="M4.66667 19V16.8889H9.33333V13.6167C8.38056 13.4231 7.52986 13.0581 6.78125 12.5215C6.03264 11.985 5.48333 11.312 5.13333 10.5028C3.675 10.3444 2.45486 9.76829 1.47292 8.77431C0.490972 7.78032 0 6.61481 0 5.27778V4.22222C0 3.64167 0.228472 3.14468 0.685417 2.73125C1.14236 2.31782 1.69167 2.11111 2.33333 2.11111H4.66667V0H16.3333V2.11111H18.6667C19.3083 2.11111 19.8576 2.31782 20.3146 2.73125C20.7715 3.14468 21 3.64167 21 4.22222V5.27778C21 6.61481 20.509 7.78032 19.5271 8.77431C18.5451 9.76829 17.325 10.3444 15.8667 10.5028C15.5167 11.312 14.9674 11.985 14.2188 12.5215C13.4701 13.0581 12.6194 13.4231 11.6667 13.6167V16.8889H16.3333V19H4.66667ZM4.66667 8.23333V4.22222H2.33333V5.27778C2.33333 5.9463 2.54722 6.54884 2.975 7.08542C3.40278 7.62199 3.96667 8.00463 4.66667 8.23333ZM10.5 11.6111C11.4722 11.6111 12.2986 11.3032 12.9792 10.6875C13.6597 10.0718 14 9.32407 14 8.44444V2.11111H7V8.44444C7 9.32407 7.34028 10.0718 8.02083 10.6875C8.70139 11.3032 9.52778 11.6111 10.5 11.6111ZM16.3333 8.23333C17.0333 8.00463 17.5972 7.62199 18.025 7.08542C18.4528 6.54884 18.6667 5.9463 18.6667 5.27778V4.22222H16.3333V8.23333Z" fill="white"/>
</svg>
