<svg width="787" height="820" viewBox="0 0 787 820" fill="none" xmlns="http://www.w3.org/2000/svg">
<g clip-path="url(#clip0_13_541)">
<path d="M20.8381 818.191C20.8381 819.194 21.3931 820 22.0842 820H785.754C786.445 820 787 819.194 787 818.191C787 817.188 786.445 816.382 785.754 816.382H22.0842C21.3931 816.382 20.8381 817.188 20.8381 818.191Z" fill="#3F3D58"/>
<path d="M265.377 144.642H20.4506C11.1101 144.642 3.50781 133.606 3.50781 120.046C3.50781 106.487 11.1101 95.4503 20.4506 95.4503H265.377C274.717 95.4503 282.32 106.487 282.32 120.046C282.32 133.606 274.717 144.642 265.377 144.642ZM20.4506 98.4906C12.2619 98.4906 5.6021 108.159 5.6021 120.046C5.6021 131.934 12.2619 141.602 20.4506 141.602H265.377C273.566 141.602 280.225 131.934 280.225 120.046C280.225 108.159 273.566 98.4906 265.377 98.4906H20.4506Z" fill="#E2E3E4"/>
<path d="M265.377 432.483H20.4507C11.3929 432.483 4.03149 421.796 4.03149 408.647C4.03149 395.498 11.3929 384.811 20.4507 384.811H265.377C274.435 384.811 281.796 395.498 281.796 408.647C281.796 421.796 274.435 432.483 265.377 432.483Z" fill="#2BE456"/>
<path d="M185.114 47.6719H16.4192C7.3614 47.6719 0 36.9853 0 23.836C0 10.6867 7.3614 0 16.4192 0H185.114C194.171 0 201.533 10.6867 201.533 23.836C201.533 36.9853 194.171 47.6719 185.114 47.6719Z" fill="#E2E3E4"/>
<path d="M265.377 240.838H20.4506C11.1101 240.838 3.50781 229.801 3.50781 216.242C3.50781 202.682 11.1101 191.645 20.4506 191.645H265.377C274.717 191.645 282.32 202.682 282.32 216.242C282.32 229.801 274.717 240.838 265.377 240.838ZM20.4506 194.686C12.2619 194.686 5.6021 204.354 5.6021 216.242C5.6021 228.129 12.2619 237.797 20.4506 237.797H265.377C273.566 237.797 280.225 228.129 280.225 216.242C280.225 204.354 273.566 194.686 265.377 194.686H20.4506Z" fill="#E2E3E4"/>
<path d="M265.377 337.048H20.4506C11.1101 337.048 3.50781 326.012 3.50781 312.452C3.50781 298.892 11.1101 287.856 20.4506 287.856H265.377C274.717 287.856 282.32 298.892 282.32 312.452C282.32 326.012 274.717 337.048 265.377 337.048ZM20.4506 290.896C12.2619 290.896 5.6021 300.564 5.6021 312.452C5.6021 324.339 12.2619 334.008 20.4506 334.008H265.377C273.566 334.008 280.225 324.339 280.225 312.452C280.225 300.564 273.566 290.896 265.377 290.896H20.4506Z" fill="#E2E3E4"/>
<path d="M12.0318 77.7861H76.2215C77.7504 77.7861 78.9965 79.5799 78.9965 81.8145C78.9965 84.034 77.7504 85.8429 76.2215 85.8429H12.0318C10.5029 85.8429 9.25684 84.0492 9.25684 81.8145C9.25684 79.5951 10.5029 77.7861 12.0318 77.7861Z" fill="#E2E3E4"/>
<path d="M12.0318 176.262H76.2215C77.7504 176.262 78.9965 178.055 78.9965 180.275C78.9965 182.494 77.7504 184.303 76.2215 184.303H12.0318C10.5029 184.303 9.25684 182.509 9.25684 180.29C9.25684 178.071 10.5029 176.262 12.0318 176.262Z" fill="#E2E3E4"/>
<path d="M12.0318 274.752H76.2215C77.7504 274.752 78.9965 276.546 78.9965 278.781C78.9965 281 77.7504 282.794 76.2215 282.794H12.0318C10.5029 282.794 9.25684 281 9.25684 278.765C9.25684 276.546 10.5029 274.752 12.0318 274.752Z" fill="#E2E3E4"/>
<path d="M468.156 201.055L444.742 212.244V163.31H465.989L468.156 201.055Z" fill="#9F616A"/>
<path d="M447.643 176.854C460.528 176.854 470.973 161.691 470.973 142.985C470.973 124.28 460.528 109.116 447.643 109.116C434.758 109.116 424.312 124.28 424.312 142.985C424.312 161.691 434.758 176.854 447.643 176.854Z" fill="#9F616A"/>
<path d="M454.051 139.626C450.145 139.459 447.58 133.728 446.061 128.498C444.543 123.269 442.983 117.264 439.36 115.106C436.396 113.342 431.171 125.276 428.836 122.099C426.396 118.785 428.773 101.774 431.36 98.7186C433.946 95.6631 437.485 95.0703 440.815 94.8422C448.941 94.295 457.119 95.2527 465.088 97.6697C470.02 99.1595 475.088 101.409 478.648 106.578C483.151 113.145 484.303 123.041 484.628 132.299C484.963 141.769 484.586 151.681 481.413 159.966C478.24 168.25 471.601 174.361 465.235 172.248C464.596 167.232 465.245 162.079 465.496 156.971C465.737 151.878 465.486 146.375 463.339 142.317C461.203 138.258 456.617 136.646 454.124 140.249" fill="#2F2E43"/>
<path d="M482.753 151.361C485.089 148.884 487.884 146.801 490.754 147.318C493.853 147.865 496.481 151.574 497.277 155.968C498.073 160.361 497.183 165.195 495.256 168.782C493.34 172.37 490.481 174.741 487.466 175.927C485.717 176.611 483.801 176.9 482.136 175.866C479.685 174.331 478.355 169.786 479.319 166.168" fill="#2F2E43"/>
<path d="M393.474 470.031C391.914 481.158 394.773 491.328 399.841 492.742C404.909 494.156 410.281 486.266 411.83 475.138C412.49 470.7 412.385 466.109 411.527 461.731L430.826 287.293L406.689 280.696L397.369 457.794C395.39 461.381 394.06 465.577 393.474 470.046V470.031Z" fill="#9F616A"/>
<path d="M444.491 189.791H428.019C416.375 192.36 413.212 201.374 410.563 218.035C406.521 243.452 401.359 277.291 402.385 277.792C404.029 278.583 432.072 297.737 446.365 293.359L444.491 189.791Z" fill="#E2E3E4"/>
<path d="M460.418 745.421H438.491V790.585H460.418V745.421Z" fill="#9F616A"/>
<path d="M417.139 817.917C414.836 817.917 412.783 817.841 411.233 817.629C405.411 816.853 399.851 810.606 397.055 806.957C395.799 805.315 395.401 802.701 396.05 800.451C396.521 798.84 397.453 797.623 398.615 797.152L414.008 790.768L438.93 766.354L439.213 767.084C439.318 767.357 441.768 773.757 442.585 778.074C442.899 779.716 442.815 781.084 442.344 782.148C442.019 782.878 441.559 783.304 441.192 783.547C441.642 784.231 443.056 785.629 447.412 786.633C453.768 788.092 455.109 778.53 455.161 778.135L455.203 777.816L455.391 777.633C458.418 774.806 460.282 773.514 460.92 773.787C461.318 773.955 461.988 774.259 463.8 800.299C463.978 801.12 465.245 807.109 464.386 812.84C463.454 819.073 444.69 816.929 440.93 816.443C440.826 816.458 426.773 817.917 417.15 817.917H417.139Z" fill="#2F2E43"/>
<path d="M522.855 709.938L504.25 726.782L520.713 765.104L539.318 748.26L522.855 709.938Z" fill="#9F616A"/>
<path d="M498.147 811.73C495.571 811.73 493.204 811.274 491.518 810.849C489.864 810.423 488.565 808.508 488.293 806.106C488.104 804.373 488.45 802.625 489.267 801.333L500 784.094L512.252 744.236L512.754 744.631C512.943 744.783 517.351 748.325 519.623 751.365C520.493 752.52 520.922 753.752 520.901 755.014C520.89 755.895 520.66 756.595 520.43 757.096C521.058 757.339 522.765 757.431 526.828 754.938C532.755 751.304 530.409 742.153 530.304 741.773L530.22 741.469L530.315 741.18C531.854 736.453 532.953 733.929 533.603 733.671C534.011 733.503 534.681 733.245 545.708 753.965C546.158 754.512 549.415 758.631 550.776 764.15C552.252 770.154 535.55 782.756 532.189 785.219C532.084 785.341 514.608 803.78 507.424 809.025C504.576 811.107 501.204 811.746 498.136 811.746L498.147 811.73Z" fill="#2F2E43"/>
<path d="M476.565 367.74H415.171L409.6 450.649L433.978 756.99H465.318L452.784 580.059L503.623 739.797L531.477 711.492L491.78 562.365C491.78 562.365 505.958 432.453 494.816 400.089C483.675 367.74 476.565 367.74 476.565 367.74Z" fill="#2F2E43"/>
<path d="M507.11 372.787H409.6L438.857 189.791H481.34L507.11 372.787Z" fill="#E2E3E4"/>
<path d="M515.885 470.031C517.445 481.158 514.586 491.328 509.518 492.742C504.45 494.156 499.078 486.266 497.528 475.138C496.869 470.7 496.973 466.109 497.832 461.731L478.533 287.293L502.67 280.696L511.989 457.794C513.968 461.381 515.298 465.577 515.885 470.046V470.031Z" fill="#9F616A"/>
<path d="M464.868 189.791H481.34C492.984 192.36 496.146 201.374 498.795 218.035C502.837 243.452 508 277.291 506.974 277.792C505.33 278.583 477.287 297.737 462.994 293.359L464.868 189.791Z" fill="#E2E3E4"/>
</g>
<defs>
<clipPath id="clip0_13_541">
<rect width="787" height="820" fill="white"/>
</clipPath>
</defs>
</svg>
