<svg width="1078" height="231" viewBox="0 0 1078 231" fill="none" xmlns="http://www.w3.org/2000/svg">
<path d="M142.557 106.316C142.104 97.9663 140.294 89.6169 136.673 82.3807L105.899 16.1422C103.636 11.1325 101.826 5.56627 100.921 0L99.5634 2.78313C91.8699 18.9253 91.8699 39.5205 99.5634 55.6627L124.454 108.542C132.148 124.684 132.148 145.28 124.454 161.422L123.097 164.205C122.191 158.639 120.381 153.072 118.118 148.063L95.4904 99.6361L81.0084 68.4651C78.7456 63.4554 76.9353 57.8892 76.0302 52.3229L74.6725 55.106C66.979 71.2482 66.979 91.2867 74.6725 107.986L99.5634 160.865C107.257 177.007 107.257 197.602 99.5634 213.745L98.2057 216.528C97.3006 210.961 95.4904 205.395 93.2275 200.386L62.0008 134.147C57.9278 125.241 56.1176 115.222 56.1176 105.202C23.0806 115.778 0 138.6 0 164.761C0 201.499 44.351 231 99.1108 231C153.871 231 198.222 201.499 198.222 164.761C198.674 139.713 176.046 116.892 142.557 106.316ZM236.237 219.311C236.689 209.848 237.594 203.725 239.857 195.933C250.266 202.055 263.843 204.839 273.799 204.839C290.997 204.839 300.953 198.159 300.953 184.243C300.953 170.884 293.712 164.761 276.515 155.299L267.011 150.846C249.361 141.383 237.594 129.137 237.594 105.202C237.594 79.041 252.529 62.3422 282.398 62.3422C294.617 62.3422 305.931 64.5687 316.34 69.0217C315.888 77.9277 314.53 85.1639 312.72 91.8434C302.763 87.3904 290.544 85.1639 281.945 85.1639C265.653 85.1639 258.412 92.9566 258.412 105.202C258.412 116.892 265.653 124.128 278.778 130.807L288.734 135.817C312.267 148.063 322.223 161.422 322.223 183.687C322.223 209.848 305.931 228.217 274.252 228.217C259.317 228.217 246.646 225.434 236.237 219.311ZM422.239 109.655V224.32H403.232L402.327 210.405C396.896 220.424 389.202 227.104 376.078 227.104C351.64 227.104 334.895 204.839 334.895 166.431C334.895 126.354 352.545 102.976 386.94 102.976C400.516 103.533 411.83 105.202 422.239 109.655ZM401.874 198.159V126.354C397.801 125.241 392.823 125.241 386.94 125.241C365.669 125.241 355.713 141.383 355.713 166.988C355.713 190.366 363.406 207.065 381.509 207.065C390.108 206.508 396.443 203.169 401.874 198.159ZM527.233 147.506V224.32H506.868V151.959C506.868 133.59 501.89 125.241 481.525 125.241C476.547 125.241 471.116 125.798 465.233 126.911V224.32H444.867V109.655C457.992 105.759 472.474 102.976 481.977 102.976C516.372 103.533 527.233 119.675 527.233 147.506ZM584.256 205.952C590.139 205.952 596.023 204.839 600.096 202.612C599.643 209.292 598.738 217.084 597.833 223.764C592.402 226.547 586.066 227.66 580.636 227.66C560.723 227.66 548.051 216.528 548.051 188.696V67.9084C554.387 65.1253 562.081 64.012 568.416 64.012V107.429H601.001C600.548 115.222 600.096 122.458 599.191 129.137H568.416V185.357C568.416 199.829 574.3 205.952 584.256 205.952ZM694.228 109.655V224.32H675.221L674.316 210.405C668.885 220.424 661.191 227.104 648.067 227.104C623.629 227.104 606.884 204.839 606.884 166.431C606.884 126.354 624.534 102.976 658.929 102.976C672.506 103.533 683.367 105.202 694.228 109.655ZM673.411 198.159V126.354C669.338 125.241 664.359 125.241 658.476 125.241C637.206 125.241 627.249 141.383 627.249 166.988C627.249 190.366 634.943 207.065 653.045 207.065C661.644 206.508 668.432 203.169 673.411 198.159ZM799.223 147.506V224.32H778.405V151.959C778.405 133.59 773.427 125.241 753.061 125.241C748.083 125.241 742.652 125.798 736.769 126.911V224.32H716.404V109.655C729.528 105.759 744.01 102.976 753.514 102.976C787.909 103.533 799.223 119.675 799.223 147.506ZM902.859 64.012V224.32H883.851L882.946 209.848C877.516 220.424 869.822 227.104 856.245 227.104C831.807 227.104 815.062 204.839 815.062 166.431C815.062 126.354 832.712 102.976 867.107 102.976C872.537 102.976 877.516 103.533 882.494 104.646V66.7952C888.83 64.5687 896.071 64.012 902.859 64.012ZM882.494 198.159V127.467C877.063 126.354 871.632 125.241 866.202 125.241C845.836 125.241 836.333 140.827 836.333 166.988C836.333 190.366 844.026 207.065 862.129 207.065C870.275 206.508 877.063 203.169 882.494 198.159ZM1006.04 175.337H940.422C943.137 195.933 952.641 205.395 971.196 205.395C982.51 205.395 993.824 202.612 1003.78 196.489C1002.87 203.169 1001.97 212.075 1000.61 219.311C991.108 224.32 981.605 226.547 970.291 226.547C935.896 226.547 919.604 203.169 919.604 164.205C919.604 130.251 932.275 102.976 964.86 102.976C994.276 102.976 1006.95 126.354 1006.95 155.299C1006.95 163.092 1006.95 168.658 1006.04 175.337ZM940.422 154.186H986.583C986.583 135.26 978.437 124.128 964.407 124.128C949.473 124.684 941.779 134.704 940.422 154.186ZM1078 104.646C1078 112.439 1077.09 121.345 1076.19 126.354C1071.21 125.798 1066.69 125.241 1060.8 125.241C1055.82 125.241 1050.85 125.798 1045.87 126.354V224.32H1025.5V109.655C1034.1 105.759 1049.04 102.976 1060.35 102.976C1066.23 103.533 1073.47 103.533 1078 104.646Z" fill="#EA1D25"/>
</svg>
