<svg width="21" height="19" viewBox="0 0 21 19" fill="none" xmlns="http://www.w3.org/2000/svg">
<path d="M2.33333 19C1.69167 19 1.14236 18.814 0.685417 18.4419C0.228472 18.0698 0 17.6225 0 17.1V3.8C0 3.2775 0.228472 2.83021 0.685417 2.45812C1.14236 2.08604 1.69167 1.9 2.33333 1.9H3.5V0H5.83333V1.9H15.1667V0H17.5V1.9H18.6667C19.3083 1.9 19.8576 2.08604 20.3146 2.45812C20.7715 2.83021 21 3.2775 21 3.8V17.1C21 17.6225 20.7715 18.0698 20.3146 18.4419C19.8576 18.814 19.3083 19 18.6667 19H2.33333ZM2.33333 17.1H18.6667V7.6H2.33333V17.1ZM2.33333 5.7H18.6667V3.8H2.33333V5.7ZM10.5 11.4C10.1694 11.4 9.89236 11.309 9.66875 11.1269C9.44514 10.9448 9.33333 10.7192 9.33333 10.45C9.33333 10.1808 9.44514 9.95521 9.66875 9.77312C9.89236 9.59104 10.1694 9.5 10.5 9.5C10.8306 9.5 11.1076 9.59104 11.3313 9.77312C11.5549 9.95521 11.6667 10.1808 11.6667 10.45C11.6667 10.7192 11.5549 10.9448 11.3313 11.1269C11.1076 11.309 10.8306 11.4 10.5 11.4ZM5.83333 11.4C5.50278 11.4 5.22569 11.309 5.00208 11.1269C4.77847 10.9448 4.66667 10.7192 4.66667 10.45C4.66667 10.1808 4.77847 9.95521 5.00208 9.77312C5.22569 9.59104 5.50278 9.5 5.83333 9.5C6.16389 9.5 6.44097 9.59104 6.66458 9.77312C6.88819 9.95521 7 10.1808 7 10.45C7 10.7192 6.88819 10.9448 6.66458 11.1269C6.44097 11.309 6.16389 11.4 5.83333 11.4ZM15.1667 11.4C14.8361 11.4 14.559 11.309 14.3354 11.1269C14.1118 10.9448 14 10.7192 14 10.45C14 10.1808 14.1118 9.95521 14.3354 9.77312C14.559 9.59104 14.8361 9.5 15.1667 9.5C15.4972 9.5 15.7743 9.59104 15.9979 9.77312C16.2215 9.95521 16.3333 10.1808 16.3333 10.45C16.3333 10.7192 16.2215 10.9448 15.9979 11.1269C15.7743 11.309 15.4972 11.4 15.1667 11.4ZM10.5 15.2C10.1694 15.2 9.89236 15.109 9.66875 14.9269C9.44514 14.7448 9.33333 14.5192 9.33333 14.25C9.33333 13.9808 9.44514 13.7552 9.66875 13.5731C9.89236 13.391 10.1694 13.3 10.5 13.3C10.8306 13.3 11.1076 13.391 11.3313 13.5731C11.5549 13.7552 11.6667 13.9808 11.6667 14.25C11.6667 14.5192 11.5549 14.7448 11.3313 14.9269C11.1076 15.109 10.8306 15.2 10.5 15.2ZM5.83333 15.2C5.50278 15.2 5.22569 15.109 5.00208 14.9269C4.77847 14.7448 4.66667 14.5192 4.66667 14.25C4.66667 13.9808 4.77847 13.7552 5.00208 13.5731C5.22569 13.391 5.50278 13.3 5.83333 13.3C6.16389 13.3 6.44097 13.391 6.66458 13.5731C6.88819 13.7552 7 13.9808 7 14.25C7 14.5192 6.88819 14.7448 6.66458 14.9269C6.44097 15.109 6.16389 15.2 5.83333 15.2ZM15.1667 15.2C14.8361 15.2 14.559 15.109 14.3354 14.9269C14.1118 14.7448 14 14.5192 14 14.25C14 13.9808 14.1118 13.7552 14.3354 13.5731C14.559 13.391 14.8361 13.3 15.1667 13.3C15.4972 13.3 15.7743 13.391 15.9979 13.5731C16.2215 13.7552 16.3333 13.9808 16.3333 14.25C16.3333 14.5192 16.2215 14.7448 15.9979 14.9269C15.7743 15.109 15.4972 15.2 15.1667 15.2Z" fill="white"/>
</svg>
