<svg width="104" height="98" viewBox="0 0 104 98" fill="none" xmlns="http://www.w3.org/2000/svg">
<path d="M80.5736 52.784V60.8961H47.7406V66.9683C47.7406 69.1807 48.3725 71.2518 49.4118 73.1239H44.479L19.5227 58.8862C15.8266 56.775 11.1104 56.5981 7.21049 58.4212C5.29995 59.3142 3.70377 60.6396 2.59153 62.2568C1.47929 63.8739 0.892518 65.7223 0.893556 67.6057C0.893556 71.1706 2.95563 74.4509 6.4095 76.3796L37.0125 93.4838H80.5736V97.5515H104.007V52.784H80.5736ZM39.7679 85.3472L11.4833 69.5389C11.11 69.3311 10.8031 69.0451 10.5907 68.7072C10.3784 68.3694 10.2675 67.9905 10.2684 67.6057C10.2684 66.3688 11.2411 65.7781 11.6602 65.5812C12.0818 65.3888 13.1827 65.0051 14.3746 65.6825L41.6749 81.2594H71.2411V73.1239H71.1501V73.1194H64.2039C61.1306 73.1194 58.5059 71.4109 57.5255 69.0317H80.5749V85.3472H39.7679ZM94.6338 89.4149H89.9471V60.9195H94.6338V89.4149ZM16.6122 47.6973C13.9901 43.7264 12.6047 39.1903 12.6047 34.5775C12.6047 19.9983 26.2677 8.13656 43.0603 8.13656C59.8567 8.13656 73.5184 19.9983 73.5184 34.5775C73.5184 39.1859 72.1343 43.7219 69.5135 47.6929L77.6464 51.7373C81.0798 46.535 82.892 40.6019 82.892 34.5775C82.892 15.5112 65.0228 -6.10352e-05 43.0603 -6.10352e-05C21.0978 -6.10352e-05 3.23117 15.5112 3.23117 34.5775C3.23117 40.6063 5.04589 46.5405 8.47926 51.7406L16.6122 47.6973Z" fill="white"/>
<path d="M29.9479 30.929L23.6963 36.9889L41.2194 50.6115L63.0525 28.8133L55.9756 23.4742L40.3864 39.0433L29.9479 30.929Z" fill="white"/>
</svg>
