<svg width="37" height="40" viewBox="0 0 37 40" fill="none" xmlns="http://www.w3.org/2000/svg">
<path d="M6.33398 40C4.66732 40 3.25065 39.4167 2.08398 38.25C0.917318 37.0833 0.333984 35.6667 0.333984 34V28H6.33398V0H36.334V34C36.334 35.6667 35.7507 37.0833 34.584 38.25C33.4173 39.4167 32.0007 40 30.334 40H6.33398ZM30.334 36C30.9007 36 31.3757 35.8083 31.759 35.425C32.1423 35.0417 32.334 34.5667 32.334 34V4H10.334V28H28.334V34C28.334 34.5667 28.5257 35.0417 28.909 35.425C29.2923 35.8083 29.7673 36 30.334 36ZM12.334 14V10H30.334V14H12.334ZM12.334 20V16H30.334V20H12.334ZM6.33398 36H24.334V32H4.33398V34C4.33398 34.5667 4.52565 35.0417 4.90898 35.425C5.29232 35.8083 5.76732 36 6.33398 36ZM6.33398 36H4.33398H24.334H6.33398Z" fill="white"/>
</svg>
