<svg width="20" height="17" viewBox="0 0 20 17" fill="none" xmlns="http://www.w3.org/2000/svg">
<path d="M13.693 0.191406C11.3008 0.191406 9.3539 2.13828 9.3539 4.52969C9.3539 4.67475 9.38837 4.81124 9.40234 4.95312C6.44428 4.67111 3.82416 3.23831 2.04687 1.05859C2.006 1.00854 1.95361 0.969132 1.89418 0.943743C1.83476 0.918354 1.77007 0.907739 1.70564 0.912807C1.64122 0.917875 1.57898 0.938474 1.52426 0.972843C1.46953 1.00721 1.42395 1.05433 1.3914 1.11016C1.01788 1.75237 0.803904 2.49982 0.803904 3.29297C0.803904 4.25903 1.14464 5.1355 1.68047 5.85859C1.57671 5.81322 1.46483 5.7836 1.3664 5.72891C1.30554 5.69504 1.23688 5.67766 1.16724 5.67847C1.09759 5.67929 1.02936 5.69827 0.969303 5.73355C0.909244 5.76883 0.859438 5.81917 0.824811 5.87961C0.790183 5.94004 0.771936 6.00847 0.771873 6.07812V6.12813C0.771873 7.60568 1.53624 8.88523 2.66719 9.66953C2.65392 9.66713 2.6398 9.66819 2.62656 9.66563C2.55841 9.65257 2.48804 9.65747 2.42236 9.67984C2.35667 9.70221 2.29794 9.74127 2.25192 9.7932C2.2059 9.84513 2.17418 9.90814 2.15987 9.97604C2.14556 10.0439 2.14916 10.1144 2.17031 10.1805C2.61834 11.5737 3.76558 12.6247 5.18515 13.0086C4.05829 13.6807 2.75076 14.0797 1.33984 14.0797C1.03576 14.0797 0.738876 14.0625 0.448436 14.0273C0.358345 14.0162 0.267146 14.036 0.189821 14.0836C0.112495 14.1311 0.0536404 14.2036 0.022925 14.289C-0.00779042 14.3744 -0.00854016 14.4678 0.0207989 14.5537C0.050138 14.6396 0.107821 14.7129 0.184373 14.7617C1.98854 15.9194 4.13572 16.5945 6.43828 16.5945C10.1715 16.5945 13.0954 15.0364 15.0602 12.8078C17.0249 10.5793 18.0469 7.69163 18.0469 4.98828C18.0469 4.87541 18.0431 4.76542 18.0398 4.65469C18.7719 4.09489 19.4206 3.42789 19.9328 2.66094C19.9812 2.58884 20.0049 2.50294 20.0002 2.41622C19.9955 2.3295 19.9627 2.24666 19.9067 2.18022C19.8508 2.11379 19.7748 2.06736 19.6901 2.04795C19.6055 2.02855 19.5168 2.03722 19.4375 2.07266C19.2318 2.16387 18.9934 2.18054 18.7789 2.25312C19.0613 1.87453 19.3036 1.46157 19.4508 1.00156C19.4754 0.924283 19.476 0.841339 19.4524 0.763731C19.4288 0.686122 19.3822 0.617517 19.3187 0.567012C19.2553 0.516507 19.1779 0.486489 19.097 0.480939C19.0161 0.475389 18.9354 0.49457 18.8656 0.535938C18.1846 0.939259 17.4301 1.2282 16.6336 1.40156C15.8573 0.672748 14.8387 0.191406 13.693 0.191406ZM13.693 0.991406C14.7133 0.991406 15.6308 1.42011 16.2758 2.10859C16.3222 2.158 16.3803 2.19481 16.4448 2.21558C16.5093 2.23635 16.578 2.2404 16.6445 2.22734C17.165 2.12496 17.6632 1.96478 18.1445 1.77031C17.8663 2.14497 17.5332 2.47541 17.1312 2.71641C17.0529 2.76363 16.9931 2.83629 16.9618 2.92227C16.9305 3.00825 16.9297 3.10235 16.9594 3.18888C16.9891 3.27542 17.0475 3.34916 17.125 3.39781C17.2025 3.44647 17.2943 3.46709 17.3852 3.45625C17.7846 3.40797 18.1403 3.24638 18.5203 3.14453C18.1784 3.51491 17.8097 3.85913 17.4016 4.15391C17.3479 4.19266 17.3046 4.24413 17.2757 4.30372C17.2468 4.36331 17.2331 4.42914 17.2359 4.49531C17.2429 4.65825 17.2469 4.82352 17.2469 4.98828C17.2469 7.48853 16.2884 10.2044 14.4602 12.2781C12.6319 14.3519 9.95062 15.7945 6.43828 15.7945C4.84486 15.7945 3.33653 15.4455 1.97656 14.8258C3.66436 14.6967 5.22161 14.0947 6.47812 13.1094C6.54312 13.0584 6.59077 12.9886 6.61452 12.9095C6.63827 12.8304 6.63695 12.7459 6.61076 12.6676C6.58457 12.5893 6.53478 12.521 6.46823 12.4721C6.40168 12.4232 6.32163 12.3961 6.23906 12.3945C4.92199 12.3704 3.8175 11.6064 3.22734 10.5234C3.25 10.5238 3.27099 10.5297 3.29375 10.5297C3.68829 10.5297 4.07212 10.477 4.43672 10.3766C4.52323 10.3525 4.59912 10.3 4.65217 10.2275C4.70522 10.1551 4.73235 10.0669 4.7292 9.97712C4.72604 9.88738 4.69278 9.8013 4.63477 9.73275C4.57675 9.66421 4.49736 9.61717 4.40937 9.59922C2.98649 9.31192 1.92341 8.15591 1.67578 6.71563C2.0782 6.8551 2.49763 6.95701 2.94375 6.97109C3.03044 6.97357 3.11559 6.94781 3.18637 6.89769C3.25715 6.84756 3.30972 6.7758 3.33616 6.6932C3.36261 6.6106 3.3615 6.52165 3.33299 6.43974C3.30449 6.35783 3.25013 6.2874 3.17812 6.23906C2.22749 5.60363 1.6039 4.52393 1.6039 3.29297C1.6039 2.83486 1.71579 2.41125 1.87344 2.01016C3.87304 4.20766 6.67143 5.66804 9.83594 5.82734C9.89788 5.83054 9.95971 5.81929 10.0166 5.79449C10.0734 5.76968 10.1237 5.732 10.1635 5.68442C10.2033 5.63683 10.2314 5.58065 10.2458 5.5203C10.2601 5.45996 10.2602 5.39711 10.2461 5.33672C10.1855 5.07785 10.1539 4.80765 10.1539 4.52969C10.1539 2.57069 11.7331 0.991406 13.693 0.991406Z" fill="#2BE456"/>
</svg>
